<svg xmlns="http://www.w3.org/2000/svg" width="981" height="149" viewBox="0 0 981 149">
  <g id="Group_6" data-name="Group 6" transform="translate(-541 -272)">
    <g id="Group_5" data-name="Group 5" transform="translate(1209.088 -196.818)">
      <path id="Path_13" data-name="Path 13" d="M-127.266,536.574q-5.36,0-7.543,3.736t-2.186,13.324q0,9.591,2.186,13.324t7.543,3.737q5.356,0,7.544-3.737t2.185-13.324q0-9.586-2.185-13.324T-127.266,536.574Z" fill="#fff"/>
      <path id="Path_14" data-name="Path 14" d="M18.807,536.291a9.672,9.672,0,0,0-7.261,2.679q-2.611,2.681-3.455,8.742H28.536q-.706-5.779-3.031-8.6A8.192,8.192,0,0,0,18.807,536.291Z" fill="#fff"/>
      <path id="Path_15" data-name="Path 15" d="M-506.129,568.158a5.117,5.117,0,0,0,1.621,4.088,6.314,6.314,0,0,0,4.3,1.411,10,10,0,0,0,6.415-2.186,7.39,7.39,0,0,0,2.75-6.134v-6.486l-7.755,1.975Q-506.131,562.659-506.129,568.158Z" fill="#fff"/>
      <path id="Path_16" data-name="Path 16" d="M-668.088,468.818v149h844v-149Zm114.515,114.427q-10.929,7.051-27.143,7.049-14.382,0-24.887-5.64a38.25,38.25,0,0,1-16.144-16.5q-5.641-10.857-5.64-25.8t5.64-25.733a38.89,38.89,0,0,1,16.074-16.5q10.432-5.709,24.816-5.71,15.789,0,26.931,6.7t14.241,20.233l-24.957,10.011q-1.552-8.6-5.076-11.774t-10.293-3.171q-8.6,0-13.184,6.485t-4.582,19.458q0,25.945,17.484,25.944,7.049,0,10.786-3.313t5.006-10.646l25.662,6.909Q-542.646,576.2-553.573,583.245Zm97.358,4.511a20.572,20.572,0,0,1-10.011,2.538q-8.037,0-13.325-2.89a13.987,13.987,0,0,1-6.979-8.531,21.019,21.019,0,0,1-9.377,8.39q-6.276,3.03-15.721,3.031-10.718,0-16.286-4.441t-5.569-12.761a18.121,18.121,0,0,1,6.345-14.382q6.345-5.5,21.15-8.46l14.946-3.1v-2.679a8.924,8.924,0,0,0-2.115-6.345,7.724,7.724,0,0,0-5.922-2.255,10.574,10.574,0,0,0-6.909,2.185q-2.68,2.187-3.243,7.543l-23.406-4.934q1.55-11.28,10.222-17.485t24.323-6.2q35.247,0,35.25,28.06v22.559q0,5.641,4.935,5.64a11.7,11.7,0,0,0,3.948-.564Zm82.624,1.128h-28.481V548.84q0-5.78-1.833-8.177a6.336,6.336,0,0,0-5.358-2.4,8.381,8.381,0,0,0-7.05,3.314q-2.54,3.314-2.538,10.222v37.083h-28.482v-70.5h25.661l.706,14.524a24.669,24.669,0,0,1,9.306-11.845,26.548,26.548,0,0,1,14.945-4.089q10.857,0,16.991,6.345t6.133,17.907Zm81.78,0h-28.764V495.825h28.764Zm101.237,0H-225.4l-23.97-70.5h29.751l11.7,52.875,11.845-52.875H-166.6ZM-99,580.636q-10.083,9.66-28.271,9.658t-28.27-9.658q-10.083-9.656-10.081-27t10.081-27q10.078-9.656,28.27-9.658T-99,526.632q10.079,9.661,10.081,27T-99,580.636Zm65.634,8.248a47.574,47.574,0,0,1-11.28,1.41q-14.1,0-21.15-5.64t-7.05-18.329V537.983H-84.262v-19.6h11.421V503.015l28.482-7.9v23.264h19.317v19.6H-44.359v23.829q0,4.938,2.185,7.05t6.7,2.115a18.321,18.321,0,0,0,9.447-2.4l1.833,16.638A28.953,28.953,0,0,1-33.361,588.884ZM54.48,560.121H8.091q.848,5.921,3.807,8.318t8.32,2.4q8.6,0,10.574-6.768L53.775,570.7a23.393,23.393,0,0,1-11.632,14.593q-8.957,5.007-21.925,5.006-19.179,0-29.329-9.517t-10.151-27.143q0-17.481,9.94-27.072t27.988-9.588q17.625,0,27.073,9.377t9.446,25.591A38.224,38.224,0,0,1,54.48,560.121Zm45.4,26.507q-3.95,3.384-11.139,3.384t-11.21-3.384q-4.017-3.384-4.017-9.447t4.017-9.447q4.02-3.384,11.21-3.384t11.139,3.384q3.946,3.386,3.948,9.447T99.883,586.628Zm2.4-39.339-1.975,11.139H76.759l-1.833-21.573q12.547-.7,17.978-3.736t5.428-8.108q0-8.037-9.165-8.037a10.589,10.589,0,0,0-8.037,3.1q-2.959,3.1-3.243,9.3l-27.777-9.87q1.269-11.421,11.139-18.26T91,494.414q17.766,0,27.989,6.345t10.222,19.74Q129.211,544.611,102.281,547.289Z" fill="#fff"/>
    </g>
    <g id="Rectangle_138" data-name="Rectangle 138" transform="translate(1378 272)" fill="none" stroke="#fff" stroke-width="10">
      <rect width="144" height="149" stroke="none"/>
      <rect x="5" y="5" width="134" height="139" fill="none"/>
    </g>
    <text id="_" data-name="✓" transform="translate(1385 391)" fill="#fff" font-size="118" font-family="LucidaGrande, Lucida Grande"><tspan x="0" y="0">✓</tspan></text>
  </g>
</svg>
