<?xml version="1.0" encoding="utf-8"?>
<!-- Generator: Adobe Illustrator 24.0.0, SVG Export Plug-In . SVG Version: 6.00 Build 0)  -->
<svg version="1.1" id="Layer_1" xmlns="http://www.w3.org/2000/svg" xmlns:xlink="http://www.w3.org/1999/xlink" x="0px" y="0px"
	 viewBox="0 0 981 150" style="enable-background:new 0 0 981 150;" xml:space="preserve">
<style type="text/css">
	.st0{fill:#9A1A46;}
	.st1{fill:none;}
	.st2{fill:none;stroke:#9A1A46;stroke-width:10;}
	.st3{enable-background:new    ;}
</style>
<g id="Group_6" transform="translate(-541 -271)">
	<g id="Group_5" transform="translate(1209.088 -196.818)">
		<path id="Path_13" class="st0" d="M-127.27,536.57c-3.57,0-6.09,1.25-7.54,3.74c-1.46,2.49-2.18,6.93-2.19,13.32
			c0,6.39,0.73,10.84,2.19,13.32s3.97,3.73,7.54,3.74c3.57,0,6.09-1.25,7.54-3.74s2.19-6.93,2.18-13.32
			c0-6.39-0.73-10.83-2.18-13.32C-121.18,537.82-123.69,536.57-127.27,536.57z"/>
		<path id="Path_14" class="st0" d="M18.81,536.29c-2.69-0.16-5.32,0.81-7.26,2.68c-1.74,1.79-2.89,4.7-3.45,8.74h20.44
			c-0.47-3.85-1.48-6.72-3.03-8.6C23.83,537.18,21.36,536.14,18.81,536.29z"/>
		<path id="Path_15" class="st0" d="M-506.13,568.16c-0.1,1.54,0.49,3.04,1.62,4.09c1.21,0.99,2.74,1.49,4.3,1.41
			c2.33,0.04,4.6-0.73,6.42-2.19c1.85-1.49,2.87-3.77,2.75-6.13v-6.49l-7.76,1.97C-503.69,562.05-506.13,564.49-506.13,568.16z"/>
		<path id="Path_16" class="st0" d="M-668.09,468.82v149h844v-149H-668.09z M-553.57,583.24c-7.29,4.7-16.33,7.05-27.14,7.05
			c-9.59,0-17.88-1.88-24.89-5.64c-6.95-3.71-12.59-9.47-16.14-16.5c-3.76-7.24-5.64-15.84-5.64-25.8c0-9.96,1.88-18.54,5.64-25.73
			c3.57-7,9.17-12.75,16.07-16.5c6.95-3.81,15.23-5.71,24.82-5.71c10.53,0,19.5,2.23,26.93,6.7s12.18,11.21,14.24,20.23
			l-24.96,10.01c-1.03-5.73-2.73-9.66-5.08-11.77c-2.35-2.12-5.78-3.17-10.29-3.17c-5.73,0-10.13,2.16-13.18,6.48
			s-4.58,10.81-4.58,19.46c0,17.3,5.83,25.94,17.48,25.94c4.7,0,8.29-1.1,10.79-3.31s4.16-5.76,5.01-10.65l25.66,6.91
			C-541.38,571.22-546.29,578.55-553.57,583.24z M-456.21,587.76c-3.07,1.68-6.51,2.56-10.01,2.54c-5.36,0-9.8-0.96-13.33-2.89
			c-3.4-1.77-5.92-4.85-6.98-8.53c-2.2,3.69-5.47,6.62-9.38,8.39c-4.18,2.02-9.42,3.03-15.72,3.03c-7.15,0-12.57-1.48-16.29-4.44
			c-3.71-2.96-5.57-7.21-5.57-12.76c-0.18-5.51,2.15-10.8,6.34-14.38c4.23-3.67,11.28-6.49,21.15-8.46l14.95-3.1v-2.68
			c0.14-2.31-0.61-4.58-2.11-6.34c-1.56-1.56-3.72-2.38-5.92-2.26c-2.49-0.11-4.94,0.67-6.91,2.18c-1.79,1.46-2.87,3.97-3.24,7.54
			l-23.41-4.93c1.03-7.52,4.44-13.35,10.22-17.48c5.78-4.14,13.89-6.2,24.32-6.2c23.5,0,35.25,9.35,35.25,28.06v22.56
			c0,3.76,1.64,5.64,4.93,5.64c1.34,0.04,2.67-0.15,3.95-0.56L-456.21,587.76z M-373.59,588.88h-28.48v-40.04
			c0-3.85-0.61-6.58-1.83-8.18c-1.29-1.63-3.29-2.53-5.36-2.4c-2.75-0.12-5.39,1.12-7.05,3.31c-1.69,2.21-2.54,5.62-2.54,10.22
			v37.08h-28.48v-70.5h25.66l0.71,14.52c1.79-4.82,5.04-8.96,9.31-11.84c4.46-2.82,9.67-4.24,14.95-4.09
			c7.24,0,12.9,2.11,16.99,6.34c4.09,4.23,6.13,10.2,6.13,17.91L-373.59,588.88z M-291.81,588.88h-28.76v-93.06h28.76V588.88z
			 M-190.57,588.88h-34.83l-23.97-70.5h29.75l11.7,52.88l11.85-52.88h29.47L-190.57,588.88z M-99,580.64
			c-6.72,6.44-16.15,9.66-28.27,9.66c-12.13,0-21.55-3.22-28.27-9.66s-10.08-15.44-10.08-27s3.36-20.56,10.08-27
			s16.14-9.66,28.27-9.66s21.55,3.22,28.27,9.65c6.72,6.44,10.08,15.44,10.08,27C-88.92,565.19-92.28,574.19-99,580.64z
			 M-33.37,588.88c-3.69,0.92-7.48,1.39-11.28,1.41c-9.4,0-16.45-1.88-21.15-5.64s-7.05-9.87-7.05-18.33v-28.34h-11.42v-19.6h11.42
			v-15.37l28.48-7.9v23.26h19.32v19.6h-19.32v23.83c0,3.29,0.73,5.64,2.19,7.05s3.69,2.11,6.7,2.11c3.31,0.07,6.57-0.76,9.45-2.4
			l1.83,16.64C-27.02,586.95-30.12,588.19-33.37,588.88L-33.37,588.88z M54.48,560.12H8.09c0.57,3.95,1.83,6.72,3.81,8.32
			s4.75,2.4,8.32,2.4c5.73,0,9.26-2.26,10.57-6.77l22.98,6.63c-1.69,6.27-5.9,11.55-11.63,14.59c-5.97,3.34-13.28,5.01-21.92,5.01
			c-12.79,0-22.56-3.17-29.33-9.52s-10.15-15.39-10.15-27.14c0-11.65,3.31-20.68,9.94-27.07s15.96-9.59,27.99-9.59
			c11.75,0,20.77,3.13,27.07,9.38s9.45,14.78,9.45,25.59C55.24,554.69,55.01,557.43,54.48,560.12z M99.88,586.63
			c-2.63,2.26-6.35,3.38-11.14,3.38s-8.53-1.13-11.21-3.38c-2.68-2.26-4.02-5.41-4.02-9.45c0-4.04,1.34-7.19,4.02-9.45
			s6.42-3.38,11.21-3.38s8.51,1.13,11.14,3.38c2.63,2.26,3.95,5.41,3.95,9.45C103.83,581.22,102.51,584.37,99.88,586.63
			L99.88,586.63z M102.28,547.29l-1.97,11.14H76.76l-1.83-21.57c8.36-0.47,14.36-1.71,17.98-3.74c3.62-2.02,5.43-4.73,5.43-8.11
			c0-5.36-3.06-8.04-9.17-8.04c-3-0.15-5.92,0.97-8.04,3.1c-1.97,2.07-3.05,5.17-3.24,9.3l-27.78-9.87
			c0.85-7.61,4.56-13.7,11.14-18.26s16.5-6.84,29.75-6.83c11.84,0,21.17,2.12,27.99,6.35s10.22,10.81,10.22,19.74
			C129.21,536.57,120.23,545.5,102.28,547.29L102.28,547.29z"/>
	</g>
	<g id="Rectangle_138" transform="translate(1378 272)">
		<rect y="0" class="st1" width="144" height="149"/>
		<rect x="5" y="5" class="st2" width="134" height="139"/>
	</g>
	<g class="st3">
		<path class="st0" d="M1488.73,321.79l-48.03,64.67l-29.56-32.16l11.62-10.68l16.7,18.12l36.58-49.39L1488.73,321.79z"/>
	</g>
</g>
</svg>
