<?xml version="1.0" encoding="utf-8"?>
<!-- Generator: Adobe Illustrator 24.0.3, SVG Export Plug-In . SVG Version: 6.00 Build 0)  -->
<svg version="1.1" id="Layer_1" xmlns="http://www.w3.org/2000/svg" xmlns:xlink="http://www.w3.org/1999/xlink" x="0px" y="0px"
	 viewBox="0 0 508.6 116.3" style="enable-background:new 0 0 508.6 116.3;" xml:space="preserve">
<style type="text/css">
	.st0{fill:#D1A50A;}
	.st1{fill:#131428;}
	.st2{fill:#FFFFFF;}
</style>
<title>Can-I-Vote-logo</title>
<rect x="1.6" y="7.3" transform="matrix(0.9994 -3.489950e-02 3.489950e-02 0.9994 -1.8677 7.3856)" class="st0" width="418" height="99.9"/>
<rect x="406.6" y="14.3" transform="matrix(5.233596e-02 -0.9986 0.9986 5.233596e-02 369.5351 516.4187)" class="st1" width="100.6" height="98.3"/>
<path class="st2" d="M492.9,41.2l-45.7,55.2l-24.8-29.9l10.8-9l14,16.9l34.8-42.2L492.9,41.2z"/>
<path class="st1" d="M37.7,28.1c11.8-0.4,18.2,7.8,19.7,20.1l-13.2,3.9c-0.4-6.1-1.8-11.6-6.2-11.4c-4.8,0.2-6.8,7.6-6.3,22.4
	c0.5,14.8,3.1,22.2,7.9,22.1c4.3-0.2,5.3-5.9,5.4-12l13.5,3C57.8,88.5,52,97.4,40.1,97.8c-14.2,0.5-22.8-11.2-23.5-34.2
	S23.5,28.6,37.7,28.1z"/>
<path class="st1" d="M86.1,80.1l-13,0.5L71,95.9l-13.8,0.5l11.5-68.6l18.3-0.6l16.4,67.6l-14.2,0.5L86.1,80.1z M74.6,69.5l9.2-0.3
	l-5.4-25.4h-0.3L74.6,69.5z"/>
<path class="st1" d="M131,25.7l13.4-0.5l2.4,68.1L134,93.7l-16.6-38H117l1.3,38.5L105,94.7l-2.4-68.1l13.8-0.5l15.5,36.5h0.4
	L131,25.7z"/>
<path class="st1" d="M177.8,24l2.4,68.1l-14.6,0.5l-2.4-68.1L177.8,24z"/>
<path class="st1" d="M225.4,22.4l14.6-0.5l-13,68.6L211.7,91l-18-67.6l15.1-0.5l9.6,44.8h0.4L225.4,22.4z"/>
<path class="st1" d="M283.6,54.4c0.8,22.7-6.8,35.1-21.4,35.7s-23-11.3-23.8-34.1s6.8-35.1,21.3-35.7S282.8,31.7,283.6,54.4z
	 M253.5,55.5c0.5,15.6,2.8,22.6,8.2,22.4s7.2-7.3,6.6-22.9s-2.8-22.6-8.2-22.4S253,39.9,253.5,55.5L253.5,55.5z"/>
<path class="st1" d="M295.8,88.1l-2-56L281,32.6l-0.4-12.1L321,19l0.4,12.1l-12.9,0.5l2,56L295.8,88.1z"/>
<path class="st1" d="M358.8,85.9L325.6,87l-2.4-68.1l33.2-1.2l0.4,12.1L338,30.6l0.5,15.7l15.9-0.5l0.4,11.5L339,57.8l0.6,16.6
	l18.9-0.7L358.8,85.9z"/>
<path class="st1" d="M357.7,37c0.3-11.8,6.9-20.4,18.6-20.8s18.5,6.7,18.9,17.1c0.2,5.4-1.2,9.5-5.4,16.1c-2.8,4.2-5.5,8.4-5.3,14.6
	l-13.1,0.5c-0.5-7.8,2.3-12.5,4.9-16.8c3.9-6.2,5.2-9.5,5.1-12.7s-1.6-6.3-5.1-6.1c-4,0.1-5.6,4.3-5.5,10.5L357.7,37z M378.7,85.9
	c-4.6,0.1-8.5-3.6-8.6-8.3c-0.1-4.6,3.6-8.5,8.3-8.6c4.6-0.1,8.4,3.6,8.6,8.2c0.2,4.6-3.5,8.5-8.1,8.7
	C378.8,85.9,378.8,85.9,378.7,85.9L378.7,85.9z"/>
</svg>
