<?xml version="1.0" encoding="utf-8"?>
<!-- Generator: Adobe Illustrator 24.0.0, SVG Export Plug-In . SVG Version: 6.00 Build 0)  -->
<svg version="1.1" id="Layer_1" xmlns="http://www.w3.org/2000/svg" xmlns:xlink="http://www.w3.org/1999/xlink" x="0px" y="0px"
	 viewBox="0 0 185.9 50.13" style="enable-background:new 0 0 185.9 50.13;" xml:space="preserve">
<style type="text/css">
	.st0{fill:none;}
	.st1{fill:none;stroke:#93183E;stroke-width:3;}
	.st2{fill:#93183E;}
</style>
<g>
	<rect x="137.45" class="st0" width="48.45" height="50.13"/>
	<rect x="139.14" y="1.68" class="st1" width="45.08" height="46.77"/>
	<rect x="1.5" y="1.68" class="st1" width="137.64" height="46.77"/>
	<path class="st2" d="M174.93,16.26l-15.84,21.33l-9.75-10.61l3.83-3.52l5.51,5.98l12.07-16.29L174.93,16.26z"/>
	<g>
		<path class="st2" d="M21.65,31.74c-1.16,0.75-2.6,1.12-4.32,1.12c-1.53,0-2.85-0.3-3.96-0.9c-1.11-0.6-1.97-1.47-2.57-2.63
			c-0.6-1.15-0.9-2.52-0.9-4.11s0.3-2.95,0.9-4.1c0.6-1.14,1.45-2.02,2.56-2.63c1.11-0.61,2.42-0.91,3.95-0.91
			c1.68,0,3.1,0.36,4.29,1.07s1.94,1.78,2.27,3.22l-3.97,1.59c-0.17-0.91-0.43-1.54-0.81-1.87c-0.37-0.34-0.92-0.5-1.64-0.5
			c-0.91,0-1.61,0.34-2.1,1.03c-0.49,0.69-0.73,1.72-0.73,3.1c0,2.75,0.93,4.13,2.78,4.13c0.75,0,1.32-0.18,1.72-0.53
			c0.4-0.35,0.66-0.92,0.8-1.69l4.08,1.1C23.59,29.83,22.81,30.99,21.65,31.74z"/>
		<path class="st2" d="M37.51,30.06l-0.36,2.4c-0.49,0.27-1.03,0.4-1.59,0.4c-0.85,0-1.56-0.15-2.12-0.46s-0.93-0.76-1.11-1.36
			c-0.33,0.57-0.83,1.01-1.49,1.34c-0.67,0.32-1.5,0.48-2.5,0.48c-1.14,0-2-0.24-2.59-0.71c-0.59-0.47-0.89-1.15-0.89-2.03
			c0-0.94,0.34-1.71,1.01-2.29c0.67-0.58,1.8-1.03,3.37-1.35l2.38-0.49v-0.43c0-0.43-0.11-0.77-0.34-1.01
			c-0.22-0.24-0.54-0.36-0.94-0.36c-0.45,0-0.82,0.12-1.1,0.35c-0.28,0.23-0.46,0.63-0.52,1.2l-3.73-0.79
			c0.16-1.2,0.71-2.12,1.63-2.78s2.21-0.99,3.87-0.99c3.74,0,5.61,1.49,5.61,4.47v3.59c0,0.6,0.26,0.9,0.79,0.9
			C37.13,30.15,37.34,30.12,37.51,30.06z M31.17,29.87c0.29-0.23,0.44-0.56,0.44-0.98v-1.03l-1.23,0.31
			c-0.78,0.19-1.17,0.58-1.17,1.17c0,0.28,0.09,0.5,0.26,0.65s0.4,0.22,0.68,0.22C30.54,30.22,30.88,30.1,31.17,29.87z"/>
		<path class="st2" d="M49.33,22.2c0.65,0.67,0.98,1.62,0.98,2.85v7.59h-4.53v-6.38c0-0.61-0.1-1.05-0.29-1.3
			c-0.19-0.25-0.48-0.38-0.85-0.38c-0.48,0-0.85,0.18-1.12,0.53c-0.27,0.35-0.4,0.89-0.4,1.63v5.9h-4.53V21.42h4.08l0.11,2.31
			c0.33-0.82,0.82-1.45,1.48-1.89c0.66-0.43,1.45-0.65,2.38-0.65C47.77,21.19,48.68,21.53,49.33,22.2z"/>
		<path class="st2" d="M63.32,32.64h-4.58V17.82h4.58V32.64z"/>
		<path class="st2" d="M83.25,21.42l-3.82,11.22h-5.54l-3.82-11.22h4.74l1.86,8.42l1.89-8.42H83.25z"/>
		<path class="st2" d="M94.02,22.73c1.07,1.03,1.6,2.46,1.6,4.3s-0.54,3.27-1.6,4.3c-1.07,1.03-2.57,1.54-4.5,1.54
			s-3.43-0.51-4.5-1.54c-1.07-1.02-1.6-2.46-1.6-4.3s0.54-3.27,1.6-4.3c1.07-1.02,2.57-1.54,4.5-1.54S92.95,21.7,94.02,22.73z
			 M88.32,24.91c-0.23,0.4-0.35,1.1-0.35,2.12s0.12,1.72,0.35,2.12c0.23,0.4,0.63,0.59,1.2,0.59c0.57,0,0.97-0.2,1.2-0.59
			s0.35-1.1,0.35-2.12s-0.12-1.72-0.35-2.12s-0.63-0.59-1.2-0.59C88.95,24.31,88.55,24.51,88.32,24.91z"/>
		<path class="st2" d="M105.92,32.06c-0.36,0.24-0.85,0.43-1.46,0.58c-0.61,0.15-1.21,0.22-1.8,0.22c-1.5,0-2.62-0.3-3.37-0.9
			c-0.75-0.6-1.12-1.57-1.12-2.92v-4.51h-1.82v-3.12h1.82v-2.45l4.53-1.26v3.7h3.08v3.12h-3.08v3.79c0,0.52,0.12,0.9,0.35,1.12
			c0.23,0.22,0.59,0.34,1.07,0.34c0.57,0,1.07-0.13,1.5-0.38L105.92,32.06z"/>
		<path class="st2" d="M118.45,28.06h-7.39c0.09,0.63,0.29,1.07,0.61,1.32c0.31,0.25,0.76,0.38,1.32,0.38
			c0.91,0,1.47-0.36,1.68-1.08l3.66,1.05c-0.28,1.02-0.9,1.79-1.85,2.32c-0.95,0.53-2.11,0.8-3.49,0.8c-2.04,0-3.59-0.5-4.67-1.52
			c-1.08-1.01-1.62-2.45-1.62-4.32c0-1.86,0.53-3.29,1.58-4.31s2.54-1.53,4.46-1.53c1.87,0,3.31,0.5,4.31,1.49s1.5,2.35,1.5,4.07
			C118.56,27.3,118.52,27.73,118.45,28.06z M111.61,24.69c-0.28,0.29-0.46,0.75-0.55,1.39h3.25c-0.08-0.61-0.24-1.07-0.48-1.37
			c-0.25-0.3-0.6-0.45-1.07-0.45C112.28,24.27,111.89,24.41,111.61,24.69z"/>
		<path class="st2" d="M128.72,18.61c1.08,0.67,1.63,1.72,1.63,3.14c0,2.56-1.43,3.98-4.29,4.26l-0.31,1.77H122l-0.29-3.43
			c1.33-0.07,2.29-0.27,2.86-0.59c0.58-0.32,0.86-0.75,0.86-1.29c0-0.85-0.49-1.28-1.46-1.28c-0.54,0-0.97,0.16-1.28,0.49
			c-0.31,0.33-0.49,0.82-0.52,1.48l-4.42-1.57c0.13-1.21,0.73-2.18,1.77-2.91c1.05-0.73,2.63-1.09,4.74-1.09
			C126.15,17.6,127.63,17.94,128.72,18.61z M125.68,29.27c0.42,0.36,0.63,0.86,0.63,1.5c0,0.64-0.21,1.14-0.63,1.5
			c-0.42,0.36-1.01,0.54-1.77,0.54s-1.36-0.18-1.78-0.54c-0.43-0.36-0.64-0.86-0.64-1.5c0-0.64,0.21-1.14,0.64-1.5
			c0.43-0.36,1.02-0.54,1.78-0.54S125.26,28.91,125.68,29.27z"/>
	</g>
</g>
</svg>
