<svg id="Layer_1" data-name="Layer 1" xmlns="http://www.w3.org/2000/svg" viewBox="0 0 151.49 27.36"><defs><style>.cls-1{fill:#161615;}.cls-2{fill:#d39a01;}.cls-3{fill:#223a76;}.cls-4{fill:#b71919;}</style></defs><title>Citizens-logo</title><g id="Group_45" data-name="Group 45"><g id="Group_45-2" data-name="Group 45-2"><path id="Path_25" data-name="Path 25" class="cls-1" d="M0,19.59C0,13,4.14,8.15,11.48,8.15a13.23,13.23,0,0,1,6.19,1.28l-2.13,4.23a9.1,9.1,0,0,0-4.36-1.15c-3.54,0-5.25,3-5.25,6.53C5.93,21.69,7,23,9.31,23a7.09,7.09,0,0,0,5-2.52L16.18,24a11.35,11.35,0,0,1-8.07,3.33C3,27.36,0,24.63,0,19.59Z"/><path id="Path_26" data-name="Path 26" class="cls-1" d="M55.88,22.54l9.74-9.6H58l.76-4.36H73.94l-.77,4.36-9.78,9.6h8.5l-1.53,4.4H55.12Z"/><path id="Path_27" data-name="Path 27" class="cls-1" d="M89.48,20.75l1.83,3.58a12.55,12.55,0,0,1-8.32,3c-5.55,0-8.5-2.73-8.5-7.76,0-6.58,4.79-11.45,11.15-11.45,4.31,0,6.36,2,6.36,4.44,0,3.25-2.48,6.7-11.53,7.26.21,2.09,1.28,3.12,3.59,3.12A8.05,8.05,0,0,0,89.48,20.75Zm-8.79-4.31c4.4-.26,6-1.54,6-3,0-.77-.6-1.28-1.66-1.28-2.39,0-3.8,1.83-4.35,4.22Z"/><path id="Path_28" data-name="Path 28" class="cls-1" d="M112,12.46a38.94,38.94,0,0,1-.81,5.9l-1.54,8.58h-5.76l1.53-8.76a26.41,26.41,0,0,0,.6-4,1.49,1.49,0,0,0-1.27-1.69,1,1,0,0,0-.3,0c-1.93,0-3.76,2.81-4.83,9l-.9,5.43H93l3.2-18.36h4.7l0,4.05c1.58-2.86,3.93-4.48,6.83-4.48S112,9.82,112,12.46Z"/><path id="Path_29" data-name="Path 29" class="cls-1" d="M112.87,26.08l1.84-3.84a11.32,11.32,0,0,0,5,1.07c1.84,0,2.74-.69,2.74-1.62,0-2.22-7.52-1.41-7.52-7.09,0-4.4,3.68-6.45,8.88-6.45A13.74,13.74,0,0,1,130,9.43l-2.09,3.85a9.26,9.26,0,0,0-4.31-1.07c-1.71,0-2.69.43-2.69,1.49,0,2.14,7.64,1.54,7.64,7.17,0,4.32-3.5,6.49-8.92,6.49C117.44,27.36,114.41,27,112.87,26.08Z"/><path id="Path_30" data-name="Path 30" class="cls-1" d="M132.82,17.16l1-5.77h2.71l-.88,5.28c-.15.89,0,1.36.75,1.36a2.11,2.11,0,0,0,1.51-.84l1-5.8h2.7l-1,6.12c-.07.41,0,.62.29.62a1.15,1.15,0,0,0,.41-.08l.55,1.33a4.4,4.4,0,0,1-2.52.86,1.3,1.3,0,0,1-1.48-1.11.49.49,0,0,1,0-.12,4,4,0,0,1-2.72,1.23C133.16,20.24,132.46,19.3,132.82,17.16Z"/><path id="Path_31" data-name="Path 31" class="cls-1" d="M147.06,16.12c1.2-.77,1.53-1.29,1.53-2a.74.74,0,0,0-.68-.81h-.15a2.25,2.25,0,0,0-1.33.59l-1,6.05h-2.7l1.95-11.69h2.71L146.75,12a4.33,4.33,0,0,1,2.4-.82,2.2,2.2,0,0,1,2.33,2.06.34.34,0,0,1,0,.1,3.55,3.55,0,0,1-1.63,2.91l-.42.28,1.68,3.5H148.3l-1.64-3.6Z"/></g><g id="Group_46" data-name="Group 46"><path id="Path_32" data-name="Path 32" class="cls-2" d="M31.92,8.59H44.38l-.76,4.35H39.26L37.9,20.45c0,.43-.13.77-.13,1.07,0,1.15.68,1.45,1.62,1.45a3.72,3.72,0,0,0,2.26-1l1.24,3.41a10,10,0,0,1-6.18,2c-2.73,0-4.82-1.19-4.82-4.31a11.62,11.62,0,0,1,.17-2l1.45-8.07H31.16Z"/><path id="Path_33" data-name="Path 33" class="cls-2" d="M35.66.94h5.78l-1,5.45H34.68Z"/></g><g id="Group_47" data-name="Group 47"><path id="Path_34" data-name="Path 34" class="cls-3" d="M22.88,6.15h0a3.43,3.43,0,0,1-.06-4.45A2.63,2.63,0,0,1,26.45.94a2.43,2.43,0,0,1,.32.24,3.43,3.43,0,0,1,.06,4.45,2.63,2.63,0,0,1-3.63.76,2.43,2.43,0,0,1-.32-.24"/><path id="Path_35" data-name="Path 35" class="cls-3" d="M30,8.59H20.94l-.77,4.35h0l-2.47,14h5.76l2.47-14h3.3Z"/></g><g id="Group_48" data-name="Group 48"><path id="Path_36" data-name="Path 36" class="cls-4" d="M55.12,3.66,51.36,7.33,48.88,3.66,52.65,0Z"/><path id="Path_37" data-name="Path 37" class="cls-4" d="M55.36,8.59h-9l-.77,4.35h3.3l-2.47,14h5.76l2.47-14h0Z"/></g></g></svg>