<svg xmlns="http://www.w3.org/2000/svg" width="228.626" height="57.588" viewBox="0 0 228.626 57.588">
  <g id="Group_1" data-name="Group 1" transform="translate(-164.666 -287.367)">
    <path id="Path_1" data-name="Path 1" d="M188.243,339.054q0,4.845-.182,6.487a14.86,14.86,0,0,1-1.876,6.122q-3.126,5.211-9.691,5.211-8.416,0-10.733-6.982a31.149,31.149,0,0,1-1.094-9.353V328.763a26.86,26.86,0,0,1,.885-7.971,9.256,9.256,0,0,1,4.273-5.133,12.456,12.456,0,0,1,6.539-1.771,11.785,11.785,0,0,1,7.191,2.189,10.984,10.984,0,0,1,4.012,6.331,35.974,35.974,0,0,1,.677,7.894h-9.926v-4.793a18.383,18.383,0,0,0-.1-2.554q-.311-1.691-1.484-1.719a1.211,1.211,0,0,0-1.224.782,11.226,11.226,0,0,0-.313,3.491v19.565q0,4.456,1.85,4.455,1.354,0,1.719-2.293a29.93,29.93,0,0,0,.1-3.256v-4.924" transform="translate(0 -11.919)" fill="#fff"/>
    <path id="Path_2" data-name="Path 2" d="M277.913,322.423H271.4v33.737H260.432V322.423h-6.487v-8.441h23.968" transform="translate(-40.124 -11.962)" fill="#fff"/>
    <path id="Path_3" data-name="Path 3" d="M349.117,356.166h-17.95v-8.7l7.946-25.037h-7.138v-8.433h17.142v9.17l-7.763,24.692h7.763" transform="translate(-74.83 -11.967)" fill="#fff"/>
    <path id="Path_4" data-name="Path 4" d="M383.661,329.363v-3.048q0-2.735-.026-2.944-.263-2.109-1.433-2.136-1.382-.025-1.615,2.006v6.122m13.625,12.5a30.981,30.981,0,0,1-.391,5.705,13.276,13.276,0,0,1-2.319,5.211q-2.97,4.064-9.066,4.09-6.852.051-9.874-4.272-2.5-3.569-2.5-11.541V328.945a26.8,26.8,0,0,1,.834-7.477q2.266-7.528,10.812-7.581,9.326-.051,11.7,8.623a32.242,32.242,0,0,1,.808,8.1v5.5H380.587v8.962q0,2.4.052,2.709.286,1.719,1.589,1.745,1.485.026,1.876-2.058a23.869,23.869,0,0,0,.13-3.2v-5.471h9.978Z" transform="translate(-92.31 -11.919)" fill="#fff" fill-rule="evenodd"/>
    <path id="Path_5" data-name="Path 5" d="M444.451,356.118H433.927V323.97q.025-.338.052-.13-.208-2.579-1.589-2.606-1.458-.025-1.719,2.892.026-.26.026,3.96v28.032H420.171V314.644h10.707l-.182,3.8q2.189-4.533,6.617-4.559a6.478,6.478,0,0,1,4.325,1.433,6.571,6.571,0,0,1,2.318,3.96,42.649,42.649,0,0,1,.494,7.763" transform="translate(-114.83 -11.919)" fill="#fff"/>
    <path id="Path_6" data-name="Path 6" d="M493.362,343.447a22.2,22.2,0,0,1-.729,6.591q-2.059,6.408-10.213,6.408-8.441,0-10.785-5.575a21.03,21.03,0,0,1-1.068-7.738v-2.005h9.326v2.631q0,2.814.052,3.179.313,2.137,1.694,2.162a1.675,1.675,0,0,0,1.8-1.146,10.212,10.212,0,0,0,.208-2.37,7.167,7.167,0,0,0-.808-3.752,6.934,6.934,0,0,0-2.318-2.188q-1.772-1.121-3.569-2.215a16.947,16.947,0,0,1-5.237-4.846,13.6,13.6,0,0,1-1.433-6.878,20.932,20.932,0,0,1,.73-6.331q1.98-5.862,10.16-5.914,6.591-.051,9.535,3.777a8.481,8.481,0,0,1,1.641,3.7,27.459,27.459,0,0,1,.208,4.116v2.4h-9.326v-2.24a12.946,12.946,0,0,0-.287-3.621q-.235-.782-1.354-.782-1.746,0-1.771,2.813a11.138,11.138,0,0,0,.156,2.579q.547,2.084,5.94,5.262,4.324,2.554,5.783,4.767,1.641,2.5,1.667,7.217" transform="translate(-137.35 -11.727)" fill="#fff"/>
    <path id="Path_7" data-name="Path 7" d="M305.56,317.753a4.789,4.789,0,1,1,4.789,4.789,4.789,4.789,0,0,1-4.789-4.789" transform="translate(-63.321 -11.504)" fill="#fff"/>
    <path id="Path_8" data-name="Path 8" d="M219.7,293.736a6.369,6.369,0,1,1,6.369,6.368,6.369,6.369,0,0,1-6.369-6.368" transform="translate(-24.733)" fill="#fff"/>
    <path id="Path_9" data-name="Path 9" d="M228.829,356.151H214.418V341.2h-.483a3.152,3.152,0,0,1-3.152-3.151V317.112a3.151,3.151,0,0,1,3.152-3.151h15.378a3.151,3.151,0,0,1,3.151,3.151v20.933a3.151,3.151,0,0,1-3.151,3.151h-.483" transform="translate(-20.726 -11.952)" fill="#fff"/>
    <path id="Path_10" data-name="Path 10" d="M312.425,364.691H301.588V353.445h-.363a2.37,2.37,0,0,1-2.37-2.37V335.333a2.37,2.37,0,0,1,2.37-2.37h11.564a2.37,2.37,0,0,1,2.37,2.37v15.742a2.37,2.37,0,0,1-2.37,2.37h-.363" transform="translate(-60.307 -20.492)" fill="#fff"/>
    <path id="Path_11" data-name="Path 11" d="M520.884,359.87v9.923c0,1.88.05,3.358,1.2,4.787a7.61,7.61,0,0,0,6.165,2.706c4.41,0,7.367-2.631,7.367-6.415v-11h-2.431V370.8c0,2.481-1.954,4.185-4.936,4.185a5.169,5.169,0,0,1-4.16-1.779c-.752-.878-.777-1.98-.777-3.508V359.87" transform="translate(-160.093 -32.585)" fill="#fff"/>
    <path id="Path_12" data-name="Path 12" d="M554.29,376.985h2.456v-8.469l8.245,8.469H568.4l-8.871-9.1,7.442-8.018h-3.082l-7.142,7.692V359.87H554.29" transform="translate(-175.106 -32.585)" fill="#fff"/>
  </g>
</svg>
